<mxfile host="app.diagrams.net" modified="2023-04-24T14:42:22.138Z" agent="Mozilla/5.0 (X11; Ubuntu; Linux x86_64; rv:109.0) Gecko/20100101 Firefox/112.0" etag="5jclyajRtxsxPNQkoZpE" version="21.2.1" type="github">
  <diagram name="Page-1" id="KA3FxY_Xme3P7mlJ_2FO">
    <mxGraphModel dx="880" dy="1583" grid="1" gridSize="10" guides="1" tooltips="1" connect="1" arrows="1" fold="1" page="1" pageScale="1" pageWidth="850" pageHeight="1100" math="0" shadow="0">
      <root>
        <mxCell id="0" />
        <mxCell id="1" parent="0" />
        <mxCell id="yk-ILZsAhJRYTvqcDezq-1" value="User" style="shape=umlActor;verticalLabelPosition=bottom;verticalAlign=top;html=1;" vertex="1" parent="1">
          <mxGeometry x="130" y="220" width="40" height="60" as="geometry" />
        </mxCell>
        <mxCell id="yk-ILZsAhJRYTvqcDezq-3" value="" style="rounded=0;whiteSpace=wrap;html=1;" vertex="1" parent="1">
          <mxGeometry x="280" y="30" width="500" height="580" as="geometry" />
        </mxCell>
        <mxCell id="yk-ILZsAhJRYTvqcDezq-16" value="" style="rounded=0;orthogonalLoop=1;jettySize=auto;html=1;entryX=0;entryY=0.5;entryDx=0;entryDy=0;exitX=1;exitY=0.5;exitDx=0;exitDy=0;" edge="1" parent="1" source="yk-ILZsAhJRYTvqcDezq-4" target="yk-ILZsAhJRYTvqcDezq-9">
          <mxGeometry relative="1" as="geometry" />
        </mxCell>
        <mxCell id="yk-ILZsAhJRYTvqcDezq-40" value="Includes" style="edgeLabel;html=1;align=center;verticalAlign=middle;resizable=0;points=[];" vertex="1" connectable="0" parent="yk-ILZsAhJRYTvqcDezq-16">
          <mxGeometry x="-0.3491" y="1" relative="1" as="geometry">
            <mxPoint x="20" y="9" as="offset" />
          </mxGeometry>
        </mxCell>
        <mxCell id="yk-ILZsAhJRYTvqcDezq-4" value="Press Start" style="ellipse;whiteSpace=wrap;html=1;" vertex="1" parent="1">
          <mxGeometry x="350" y="60" width="120" height="50" as="geometry" />
        </mxCell>
        <mxCell id="yk-ILZsAhJRYTvqcDezq-27" style="rounded=0;orthogonalLoop=1;jettySize=auto;html=1;entryX=0;entryY=0.5;entryDx=0;entryDy=0;exitX=1;exitY=0.5;exitDx=0;exitDy=0;" edge="1" parent="1" source="yk-ILZsAhJRYTvqcDezq-5" target="yk-ILZsAhJRYTvqcDezq-8">
          <mxGeometry relative="1" as="geometry" />
        </mxCell>
        <mxCell id="yk-ILZsAhJRYTvqcDezq-41" value="Includes" style="edgeLabel;html=1;align=center;verticalAlign=middle;resizable=0;points=[];" vertex="1" connectable="0" parent="yk-ILZsAhJRYTvqcDezq-27">
          <mxGeometry x="-0.301" y="-1" relative="1" as="geometry">
            <mxPoint x="9" as="offset" />
          </mxGeometry>
        </mxCell>
        <mxCell id="yk-ILZsAhJRYTvqcDezq-5" value="Select Destination" style="ellipse;whiteSpace=wrap;html=1;" vertex="1" parent="1">
          <mxGeometry x="355" y="130" width="115" height="50" as="geometry" />
        </mxCell>
        <mxCell id="yk-ILZsAhJRYTvqcDezq-14" value="" style="rounded=0;orthogonalLoop=1;jettySize=auto;html=1;entryX=0;entryY=0.5;entryDx=0;entryDy=0;exitX=1;exitY=0.5;exitDx=0;exitDy=0;" edge="1" parent="1" source="yk-ILZsAhJRYTvqcDezq-6" target="yk-ILZsAhJRYTvqcDezq-11">
          <mxGeometry relative="1" as="geometry" />
        </mxCell>
        <mxCell id="yk-ILZsAhJRYTvqcDezq-42" value="Includes" style="edgeLabel;html=1;align=center;verticalAlign=middle;resizable=0;points=[];" vertex="1" connectable="0" parent="yk-ILZsAhJRYTvqcDezq-14">
          <mxGeometry x="-0.2868" relative="1" as="geometry">
            <mxPoint x="10" as="offset" />
          </mxGeometry>
        </mxCell>
        <mxCell id="yk-ILZsAhJRYTvqcDezq-6" value="Input credit card" style="ellipse;whiteSpace=wrap;html=1;" vertex="1" parent="1">
          <mxGeometry x="355" y="200" width="120" height="50" as="geometry" />
        </mxCell>
        <mxCell id="yk-ILZsAhJRYTvqcDezq-17" value="" style="rounded=0;orthogonalLoop=1;jettySize=auto;html=1;entryX=0;entryY=0.5;entryDx=0;entryDy=0;" edge="1" parent="1" target="yk-ILZsAhJRYTvqcDezq-12">
          <mxGeometry relative="1" as="geometry">
            <mxPoint x="470" y="295" as="sourcePoint" />
          </mxGeometry>
        </mxCell>
        <mxCell id="yk-ILZsAhJRYTvqcDezq-43" value="Inclides" style="edgeLabel;html=1;align=center;verticalAlign=middle;resizable=0;points=[];" vertex="1" connectable="0" parent="yk-ILZsAhJRYTvqcDezq-17">
          <mxGeometry x="-0.2501" relative="1" as="geometry">
            <mxPoint as="offset" />
          </mxGeometry>
        </mxCell>
        <mxCell id="yk-ILZsAhJRYTvqcDezq-7" value="Enter PIN" style="ellipse;whiteSpace=wrap;html=1;" vertex="1" parent="1">
          <mxGeometry x="355" y="270" width="120" height="50" as="geometry" />
        </mxCell>
        <mxCell id="yk-ILZsAhJRYTvqcDezq-8" value="Verify Desination" style="ellipse;whiteSpace=wrap;html=1;" vertex="1" parent="1">
          <mxGeometry x="560" y="170" width="120" height="50" as="geometry" />
        </mxCell>
        <mxCell id="yk-ILZsAhJRYTvqcDezq-9" value="Display destinations" style="ellipse;whiteSpace=wrap;html=1;" vertex="1" parent="1">
          <mxGeometry x="560" y="110" width="120" height="50" as="geometry" />
        </mxCell>
        <mxCell id="yk-ILZsAhJRYTvqcDezq-18" value="" style="rounded=0;orthogonalLoop=1;jettySize=auto;html=1;entryX=0.575;entryY=0.98;entryDx=0;entryDy=0;entryPerimeter=0;" edge="1" parent="1" source="yk-ILZsAhJRYTvqcDezq-10" target="yk-ILZsAhJRYTvqcDezq-11">
          <mxGeometry relative="1" as="geometry">
            <mxPoint x="630" y="280" as="targetPoint" />
          </mxGeometry>
        </mxCell>
        <mxCell id="yk-ILZsAhJRYTvqcDezq-57" value="Extends" style="edgeLabel;html=1;align=center;verticalAlign=middle;resizable=0;points=[];" vertex="1" connectable="0" parent="yk-ILZsAhJRYTvqcDezq-18">
          <mxGeometry x="-0.2643" relative="1" as="geometry">
            <mxPoint y="-1" as="offset" />
          </mxGeometry>
        </mxCell>
        <mxCell id="yk-ILZsAhJRYTvqcDezq-22" value="" style="rounded=0;orthogonalLoop=1;jettySize=auto;html=1;entryX=0.445;entryY=0.02;entryDx=0;entryDy=0;entryPerimeter=0;" edge="1" parent="1" source="yk-ILZsAhJRYTvqcDezq-10" target="yk-ILZsAhJRYTvqcDezq-19">
          <mxGeometry relative="1" as="geometry">
            <mxPoint x="620" y="460" as="targetPoint" />
          </mxGeometry>
        </mxCell>
        <mxCell id="yk-ILZsAhJRYTvqcDezq-53" value="Includes" style="edgeLabel;html=1;align=center;verticalAlign=middle;resizable=0;points=[];" vertex="1" connectable="0" parent="yk-ILZsAhJRYTvqcDezq-22">
          <mxGeometry x="-0.4646" y="-1" relative="1" as="geometry">
            <mxPoint x="1" y="11" as="offset" />
          </mxGeometry>
        </mxCell>
        <mxCell id="yk-ILZsAhJRYTvqcDezq-54" value="" style="rounded=0;orthogonalLoop=1;jettySize=auto;html=1;entryX=0;entryY=0.5;entryDx=0;entryDy=0;exitX=0;exitY=0.5;exitDx=0;exitDy=0;" edge="1" parent="1" source="yk-ILZsAhJRYTvqcDezq-10" target="yk-ILZsAhJRYTvqcDezq-23">
          <mxGeometry relative="1" as="geometry">
            <mxPoint x="561" y="415" as="sourcePoint" />
            <mxPoint x="526" y="365" as="targetPoint" />
          </mxGeometry>
        </mxCell>
        <mxCell id="yk-ILZsAhJRYTvqcDezq-55" value="Extends" style="edgeLabel;html=1;align=center;verticalAlign=middle;resizable=0;points=[];" vertex="1" connectable="0" parent="yk-ILZsAhJRYTvqcDezq-54">
          <mxGeometry x="0.5356" y="-1" relative="1" as="geometry">
            <mxPoint x="6" y="14" as="offset" />
          </mxGeometry>
        </mxCell>
        <mxCell id="yk-ILZsAhJRYTvqcDezq-10" value="Credit Card Transaction" style="ellipse;whiteSpace=wrap;html=1;" vertex="1" parent="1">
          <mxGeometry x="640" y="370" width="120" height="50" as="geometry" />
        </mxCell>
        <mxCell id="yk-ILZsAhJRYTvqcDezq-11" value="Validate&amp;nbsp; credit card" style="ellipse;whiteSpace=wrap;html=1;" vertex="1" parent="1">
          <mxGeometry x="560" y="235" width="120" height="50" as="geometry" />
        </mxCell>
        <mxCell id="yk-ILZsAhJRYTvqcDezq-12" value="Validate PIN" style="ellipse;whiteSpace=wrap;html=1;" vertex="1" parent="1">
          <mxGeometry x="510" y="300" width="120" height="50" as="geometry" />
        </mxCell>
        <mxCell id="yk-ILZsAhJRYTvqcDezq-19" value="Check Funds" style="ellipse;whiteSpace=wrap;html=1;" vertex="1" parent="1">
          <mxGeometry x="570" y="500" width="110" height="50" as="geometry" />
        </mxCell>
        <mxCell id="yk-ILZsAhJRYTvqcDezq-23" value="Issue ticket " style="ellipse;whiteSpace=wrap;html=1;direction=west;" vertex="1" parent="1">
          <mxGeometry x="380" y="340" width="115" height="50" as="geometry" />
        </mxCell>
        <mxCell id="yk-ILZsAhJRYTvqcDezq-35" value="" style="rounded=0;orthogonalLoop=1;jettySize=auto;html=1;entryX=0;entryY=0.5;entryDx=0;entryDy=0;" edge="1" parent="1" source="yk-ILZsAhJRYTvqcDezq-1" target="yk-ILZsAhJRYTvqcDezq-4">
          <mxGeometry relative="1" as="geometry" />
        </mxCell>
        <mxCell id="yk-ILZsAhJRYTvqcDezq-36" style="rounded=0;orthogonalLoop=1;jettySize=auto;html=1;entryX=0;entryY=0.5;entryDx=0;entryDy=0;" edge="1" parent="1" source="yk-ILZsAhJRYTvqcDezq-1" target="yk-ILZsAhJRYTvqcDezq-5">
          <mxGeometry relative="1" as="geometry" />
        </mxCell>
        <mxCell id="yk-ILZsAhJRYTvqcDezq-37" value="" style="rounded=0;orthogonalLoop=1;jettySize=auto;html=1;entryX=0;entryY=0.5;entryDx=0;entryDy=0;" edge="1" parent="1" source="yk-ILZsAhJRYTvqcDezq-1" target="yk-ILZsAhJRYTvqcDezq-6">
          <mxGeometry relative="1" as="geometry" />
        </mxCell>
        <mxCell id="yk-ILZsAhJRYTvqcDezq-38" value="" style="rounded=0;orthogonalLoop=1;jettySize=auto;html=1;entryX=0;entryY=0.5;entryDx=0;entryDy=0;" edge="1" parent="1" source="yk-ILZsAhJRYTvqcDezq-1" target="yk-ILZsAhJRYTvqcDezq-7">
          <mxGeometry relative="1" as="geometry" />
        </mxCell>
        <mxCell id="yk-ILZsAhJRYTvqcDezq-45" value="Cancel" style="ellipse;whiteSpace=wrap;html=1;direction=west;" vertex="1" parent="1">
          <mxGeometry x="360" y="430" width="115" height="50" as="geometry" />
        </mxCell>
        <mxCell id="yk-ILZsAhJRYTvqcDezq-47" style="rounded=0;orthogonalLoop=1;jettySize=auto;html=1;entryX=1;entryY=0.5;entryDx=0;entryDy=0;" edge="1" parent="1" source="yk-ILZsAhJRYTvqcDezq-1" target="yk-ILZsAhJRYTvqcDezq-45">
          <mxGeometry relative="1" as="geometry" />
        </mxCell>
        <mxCell id="yk-ILZsAhJRYTvqcDezq-56" value="Automated Ticket Issuing System" style="text;html=1;align=center;verticalAlign=middle;resizable=0;points=[];autosize=1;strokeColor=none;fillColor=none;" vertex="1" parent="1">
          <mxGeometry x="400" y="-10" width="200" height="30" as="geometry" />
        </mxCell>
      </root>
    </mxGraphModel>
  </diagram>
</mxfile>
